<svg xmlns="http://www.w3.org/2000/svg" xmlns:xlink="http://www.w3.org/1999/xlink" width="66.607" height="73.209" viewBox="0 0 66.607 73.209">
  <defs>
    <clipPath id="clip-path">
      <rect id="Rectángulo_403312" data-name="Rectángulo 403312" width="41.097" height="41.096" fill="none"/>
    </clipPath>
  </defs>
  <g id="Grupo_1103697" data-name="Grupo 1103697" transform="translate(-704.348 -6749.859)">
    <g id="Grupo_1101840" data-name="Grupo 1101840" transform="translate(704.856 6750.35)">
      <path id="Trazado_877346" data-name="Trazado 877346" d="M32.795,0s5.467,1.1,17.33,4.159C61.333,7.047,65.262,8.2,65.262,8.2s1.848,11.323-3.235,32.237c-4.1,16.882-17.563,27.728-29.232,31.75C21.125,68.168,7.667,57.322,3.563,40.44-1.521,19.527.327,8.2.327,8.2S4.257,7.047,15.463,4.159C27.328,1.1,32.795,0,32.795,0" transform="translate(0 0)" fill="none" stroke="#072c6c" stroke-width="1"/>
      <path id="Trazado_877313" data-name="Trazado 877313" d="M30.646,0s5.108,1.03,16.195,3.886c10.474,2.7,14.146,3.78,14.146,3.78s1.727,10.581-3.023,30.125C54.128,53.567,41.551,63.7,30.646,67.461,19.741,63.7,7.165,53.567,3.329,37.79-1.422,18.247.306,7.666.306,7.666s3.672-1.08,14.144-3.78C25.538,1.03,30.646,0,30.646,0" transform="translate(2.149 2.364)" fill="#0d4ab5"/>
    </g>
    <g id="Grupo_1103038" data-name="Grupo 1103038" transform="translate(720.98 6760.718)">
      <g id="Grupo_1103037" data-name="Grupo 1103037" transform="translate(0 0)" clip-path="url(#clip-path)">
        <path id="Trazado_877684" data-name="Trazado 877684" d="M22.09,37.449a1.323,1.323,0,0,1-.389.937l-1.874,1.874a1.326,1.326,0,0,1-.937.389H4.079a1.324,1.324,0,0,1-.937-.389L1.268,38.386a1.323,1.323,0,0,1-.389-.937V4.079a1.324,1.324,0,0,1,.389-.937L3.142,1.268A1.324,1.324,0,0,1,4.079.879H18.89a1.326,1.326,0,0,1,.937.389L21.7,3.142a1.324,1.324,0,0,1,.389.937Z" transform="translate(-0.216 -0.216)" fill="#5e96d1"/>
        <path id="Trazado_877685" data-name="Trazado 877685" d="M20.688,1.267a1.328,1.328,0,0,0-.937-.389H4.941a1.33,1.33,0,0,0-.462.087,1.314,1.314,0,0,0-.087.463V34.8a1.326,1.326,0,0,0,.389.938l1.874,1.874A1.328,1.328,0,0,0,7.592,38H22.4a1.327,1.327,0,0,0,.462-.087,1.314,1.314,0,0,0,.087-.463V4.078a1.326,1.326,0,0,0-.389-.937L20.688,1.267Z" transform="translate(-1.078 -0.216)" fill="#c0d2ee"/>
        <path id="Trazado_877686" data-name="Trazado 877686" d="M5.718,6.149H18.974A1.326,1.326,0,0,1,20.3,7.475V27.36a1.326,1.326,0,0,1-1.326,1.326H5.718A1.326,1.326,0,0,1,4.392,27.36V7.475A1.326,1.326,0,0,1,5.718,6.149" transform="translate(-1.078 -1.51)" fill="#dae2f4"/>
        <path id="Trazado_877687" data-name="Trazado 877687" d="M19.837,6.149H7.906V24.708a1.326,1.326,0,0,0,1.326,1.326H21.163V7.475a1.325,1.325,0,0,0-1.326-1.326" transform="translate(-1.941 -1.51)" fill="#efefef"/>
        <path id="Trazado_877688" data-name="Trazado 877688" d="M29.548,41.52H17.081a3.977,3.977,0,1,0,0,3.977H29.548a1.325,1.325,0,0,0,1.326-1.326V42.846a1.325,1.325,0,0,0-1.326-1.326" transform="translate(-2.372 -9.704)" fill="#202020"/>
        <path id="Trazado_877689" data-name="Trazado 877689" d="M29.548,41.52H17.081a3.972,3.972,0,0,0-7.263,3.072,3.97,3.97,0,0,0,6.6-.422H28.886a1.325,1.325,0,0,0,1.325-1.326V41.7a1.308,1.308,0,0,0-.662-.183Z" transform="translate(-2.372 -9.704)" fill="#383738"/>
        <path id="Trazado_877690" data-name="Trazado 877690" d="M14.5,43.045a1.326,1.326,0,1,1-1.326,1.326A1.326,1.326,0,0,1,14.5,43.045" transform="translate(-3.234 -10.566)" fill="#575756"/>
        <rect id="Rectángulo_403306" data-name="Rectángulo 403306" width="3.977" height="3.977" transform="translate(5.965 7.291)" fill="#f59729"/>
        <path id="Trazado_877691" data-name="Trazado 877691" d="M9.663,9.663v1.326a1.325,1.325,0,0,0,1.326,1.326h1.326V9.663Z" transform="translate(-2.372 -2.372)" fill="#f9a92a"/>
        <rect id="Rectángulo_403307" data-name="Rectángulo 403307" width="3.977" height="3.977" transform="translate(12.594 7.291)" fill="#f59729"/>
        <path id="Trazado_877692" data-name="Trazado 877692" d="M18.448,9.663v1.326a1.325,1.325,0,0,0,1.326,1.326H21.1V9.663Z" transform="translate(-4.528 -2.372)" fill="#f9a92a"/>
        <rect id="Rectángulo_403308" data-name="Rectángulo 403308" width="3.977" height="3.977" transform="translate(12.594 13.92)" fill="#f59729"/>
        <path id="Trazado_877693" data-name="Trazado 877693" d="M18.448,18.448v1.326A1.325,1.325,0,0,0,19.774,21.1H21.1V18.448Z" transform="translate(-4.528 -4.529)" fill="#f9a92a"/>
        <rect id="Rectángulo_403309" data-name="Rectángulo 403309" width="3.977" height="3.977" transform="translate(12.594 20.548)" fill="#f59729"/>
        <path id="Trazado_877694" data-name="Trazado 877694" d="M18.448,27.233v1.326a1.325,1.325,0,0,0,1.326,1.326H21.1V27.233Z" transform="translate(-4.528 -6.685)" fill="#f9a92a"/>
        <rect id="Rectángulo_403310" data-name="Rectángulo 403310" width="3.977" height="3.977" transform="translate(5.965 20.548)" fill="#f59729"/>
        <path id="Trazado_877695" data-name="Trazado 877695" d="M9.663,27.233v1.326a1.325,1.325,0,0,0,1.326,1.326h1.326V27.233Z" transform="translate(-2.372 -6.685)" fill="#f9a92a"/>
        <rect id="Rectángulo_403311" data-name="Rectángulo 403311" width="3.977" height="3.977" transform="translate(5.965 13.92)" fill="#f59729"/>
        <path id="Trazado_877696" data-name="Trazado 877696" d="M9.663,18.448v1.326A1.325,1.325,0,0,0,10.989,21.1h1.326V18.448Z" transform="translate(-2.372 -4.529)" fill="#f9a92a"/>
        <path id="Trazado_877697" data-name="Trazado 877697" d="M43.772,11.42a3.315,3.315,0,0,0,3.314,3.314h1.326v7.105a5.3,5.3,0,0,1-2.361,4.412l-5.593,3.728-5.593-3.728A5.3,5.3,0,0,1,32.5,21.839V14.734H33.83a3.315,3.315,0,0,0,3.314-3.314Z" transform="translate(-7.979 -2.803)" fill="#fb9a11"/>
        <path id="Trazado_877698" data-name="Trazado 877698" d="M36.017,23.535l3.314,3.314,7.292-7.291L44.634,17.57l-5.3,5.3-1.326-1.326Z" transform="translate(-8.841 -4.313)" fill="#fff"/>
        <path id="Trazado_877699" data-name="Trazado 877699" d="M20.748,27.1V7.217a1.991,1.991,0,0,0-1.988-1.989H5.5A1.991,1.991,0,0,0,3.514,7.217V27.1A1.99,1.99,0,0,0,5.5,29.09H18.759A1.99,1.99,0,0,0,20.748,27.1M4.84,27.1V7.217A.664.664,0,0,1,5.5,6.554H18.759a.664.664,0,0,1,.662.663V27.1a.662.662,0,0,1-.662.662H5.5A.663.663,0,0,1,4.84,27.1" transform="translate(-0.863 -1.284)" fill="#0c1d30"/>
        <path id="Trazado_877700" data-name="Trazado 877700" d="M11.668,8.784H7.69a.663.663,0,0,0-.662.663v3.977a.662.662,0,0,0,.662.662h3.977a.663.663,0,0,0,.663-.662V9.447a.663.663,0,0,0-.663-.663m-.662,3.977H8.354V10.11h2.651Z" transform="translate(-1.725 -2.156)" fill="#0c1d30"/>
        <path id="Trazado_877701" data-name="Trazado 877701" d="M20.453,8.784H16.475a.663.663,0,0,0-.662.663v3.977a.662.662,0,0,0,.662.662h3.977a.662.662,0,0,0,.662-.662V9.447a.663.663,0,0,0-.662-.663m-.663,3.977H17.138V10.11h2.651Z" transform="translate(-3.882 -2.156)" fill="#0c1d30"/>
        <path id="Trazado_877702" data-name="Trazado 877702" d="M11.668,17.569H7.69a.663.663,0,0,0-.662.663v3.976a.663.663,0,0,0,.662.663h3.977a.663.663,0,0,0,.663-.663V18.232a.663.663,0,0,0-.663-.663m-.662,3.977H8.354V18.895h2.651Z" transform="translate(-1.725 -4.313)" fill="#0c1d30"/>
        <path id="Trazado_877703" data-name="Trazado 877703" d="M20.453,17.569H16.475a.663.663,0,0,0-.662.663v3.976a.663.663,0,0,0,.662.663h3.977a.663.663,0,0,0,.662-.663V18.232a.663.663,0,0,0-.662-.663m-.663,3.977H17.138V18.895h2.651Z" transform="translate(-3.882 -4.313)" fill="#0c1d30"/>
        <path id="Trazado_877704" data-name="Trazado 877704" d="M11.668,26.354H7.69a.662.662,0,0,0-.662.662v3.977a.662.662,0,0,0,.662.663h3.977a.663.663,0,0,0,.663-.663V27.016a.663.663,0,0,0-.663-.662m-.662,3.977H8.354V27.68h2.651Z" transform="translate(-1.725 -6.469)" fill="#0c1d30"/>
        <path id="Trazado_877705" data-name="Trazado 877705" d="M20.453,26.354H16.475a.662.662,0,0,0-.662.662v3.977a.662.662,0,0,0,.662.663h3.977a.662.662,0,0,0,.662-.663V27.016a.662.662,0,0,0-.662-.662m-.663,3.977H17.138V27.68h2.651Z" transform="translate(-3.882 -6.469)" fill="#0c1d30"/>
        <path id="Trazado_877706" data-name="Trazado 877706" d="M48.2,13.856H46.87A2.654,2.654,0,0,1,44.219,11.2a.663.663,0,0,0-.663-.662H36.927a.662.662,0,0,0-.662.662,2.654,2.654,0,0,1-2.651,2.651H32.287a.663.663,0,0,0-.662.663v7.1a5.953,5.953,0,0,0,2.657,4.963l5.593,3.728a.662.662,0,0,0,.736,0L46.2,26.587a5.953,5.953,0,0,0,2.657-4.963v-7.1a.663.663,0,0,0-.663-.663Zm-.662,7.768a4.629,4.629,0,0,1-2.066,3.86l-5.225,3.484-5.225-3.484a4.629,4.629,0,0,1-2.066-3.86V15.182h.662a3.984,3.984,0,0,0,3.922-3.314h5.413a3.984,3.984,0,0,0,3.922,3.314h.662Z" transform="translate(-7.763 -2.588)" fill="#0c1d30"/>
        <path id="Trazado_877707" data-name="Trazado 877707" d="M44.888,16.885a.663.663,0,0,0-.937,0l-4.834,4.834-.857-.857a.663.663,0,0,0-.937,0l-1.988,1.989a.661.661,0,0,0,0,.937L38.648,27.1a.661.661,0,0,0,.937,0l7.291-7.291a.661.661,0,0,0,0-.937ZM39.116,25.7,36.739,23.32l1.051-1.051.857.856a.661.661,0,0,0,.937,0l4.834-4.834,1.051,1.051Z" transform="translate(-8.625 -4.097)" fill="#0c1d30"/>
        <path id="Trazado_877708" data-name="Trazado 877708" d="M27.177,31.154h-4.64V3.864a1.979,1.979,0,0,0-.583-1.406L20.08.583A1.974,1.974,0,0,0,18.673,0H3.863A1.97,1.97,0,0,0,2.458.583L.583,2.458A1.976,1.976,0,0,0,0,3.864V37.248a1.975,1.975,0,0,0,.583,1.391l1.875,1.875a1.976,1.976,0,0,0,1.406.583h14.81a1.976,1.976,0,0,0,1.406-.583l1.874-1.875a1.976,1.976,0,0,0,.583-1.406v-.777h4.64a1.99,1.99,0,0,0,1.988-1.988V33.142a1.99,1.99,0,0,0-1.988-1.988m-5.966,6.079a.665.665,0,0,1-.194.469l-1.874,1.874a.666.666,0,0,1-.469.195H3.863a.663.663,0,0,1-.469-.195L1.52,37.7a.666.666,0,0,1-.194-.469V3.864a.659.659,0,0,1,.194-.469L3.395,1.52a.667.667,0,0,1,.469-.195h14.81a.668.668,0,0,1,.469.195l1.874,1.874a.662.662,0,0,1,.194.469v27.29H15.073a4.634,4.634,0,0,0-4.543-1.931,4.64,4.64,0,1,0,4.542,7.233h6.139Zm6.629-2.765a.663.663,0,0,1-.662.662H14.708a.661.661,0,0,0-.573.331,3.314,3.314,0,1,1-3.4-4.929,3.405,3.405,0,0,1,.529-.041,3.307,3.307,0,0,1,2.874,1.657.662.662,0,0,0,.573.331H27.177a.663.663,0,0,1,.662.662Z" transform="translate(0 0)" fill="#0c1d30"/>
        <path id="Trazado_877709" data-name="Trazado 877709" d="M14.287,42.167a1.989,1.989,0,1,0,1.988,1.989,1.991,1.991,0,0,0-1.988-1.989m0,2.651a.663.663,0,1,1,.662-.662.663.663,0,0,1-.662.662" transform="translate(-3.019 -10.351)" fill="#0c1d30"/>
      </g>
    </g>
  </g>
</svg>
